<svg width="20" height="20" viewBox="0 0 20 20" fill="none" xmlns="http://www.w3.org/2000/svg">
<path d="M10 7.50001C10.4584 7.50001 10.8334 7.12501 10.8334 6.66668V5.00001H12.5C12.9584 5.00001 13.3334 4.62501 13.3334 4.16668C13.3334 3.70834 12.9584 3.33334 12.5 3.33334H10.8334V1.66668C10.8334 1.20834 10.4584 0.833344 10 0.833344C9.54171 0.833344 9.16671 1.20834 9.16671 1.66668V3.33334H7.50004C7.04171 3.33334 6.66671 3.70834 6.66671 4.16668C6.66671 4.62501 7.04171 5.00001 7.50004 5.00001H9.16671V6.66668C9.16671 7.12501 9.54171 7.50001 10 7.50001ZM5.83337 15C4.91671 15 4.17504 15.75 4.17504 16.6667C4.17504 17.5833 4.91671 18.3333 5.83337 18.3333C6.75004 18.3333 7.50004 17.5833 7.50004 16.6667C7.50004 15.75 6.75004 15 5.83337 15ZM14.1667 15C13.25 15 12.5084 15.75 12.5084 16.6667C12.5084 17.5833 13.25 18.3333 14.1667 18.3333C15.0834 18.3333 15.8334 17.5833 15.8334 16.6667C15.8334 15.75 15.0834 15 14.1667 15ZM6.75004 10.8333H12.9584C13.5834 10.8333 14.1334 10.4917 14.4167 9.97501L17.2334 4.86668C17.4584 4.46668 17.3084 3.95834 16.9084 3.73334C16.7159 3.62802 16.4896 3.60307 16.2789 3.66396C16.0681 3.72485 15.89 3.86662 15.7834 4.05834L12.9584 9.16668H7.10837L3.78337 2.14168C3.7164 1.99943 3.61029 1.87921 3.47746 1.79509C3.34464 1.71097 3.1906 1.66642 3.03337 1.66668H1.66671C1.20837 1.66668 0.833374 2.04168 0.833374 2.50001C0.833374 2.95834 1.20837 3.33334 1.66671 3.33334H2.50004L5.50004 9.65834L4.37504 11.6917C3.76671 12.8083 4.56671 14.1667 5.83337 14.1667H15C15.4584 14.1667 15.8334 13.7917 15.8334 13.3333C15.8334 12.875 15.4584 12.5 15 12.5H5.83337L6.75004 10.8333Z" fill="black"/>
</svg>
