<svg width="14" height="14" viewBox="0 0 14 14" fill="none" xmlns="http://www.w3.org/2000/svg">
<path d="M3.5 7.875H6.125V8.75H3.5V7.875Z" fill="black"/>
<path d="M3.5 9.625H7.875V10.5H3.5V9.625Z" fill="black"/>
<path d="M11.375 1.75H2.625C2.39301 1.75023 2.17058 1.84249 2.00654 2.00654C1.84249 2.17058 1.75023 2.39301 1.75 2.625V11.375C1.75023 11.607 1.84249 11.8294 2.00654 11.9935C2.17058 12.1575 2.39301 12.2498 2.625 12.25H11.375C11.607 12.2498 11.8294 12.1575 11.9935 11.9935C12.1575 11.8294 12.2498 11.607 12.25 11.375V2.625C12.2498 2.39301 12.1575 2.17058 11.9935 2.00654C11.8294 1.84249 11.607 1.75023 11.375 1.75ZM7.875 2.625V4.375H6.125V2.625H7.875ZM2.625 11.375V2.625H5.25V5.25H8.75V2.625H11.375L11.3754 11.375H2.625Z" fill="black"/>
</svg>
