<svg width="20" height="20" viewBox="0 0 20 20" fill="none" xmlns="http://www.w3.org/2000/svg">
<path d="M12.9583 10.8333C13.5833 10.8333 14.1333 10.4917 14.4167 9.97499L17.4 4.56666C17.4702 4.44034 17.5063 4.29788 17.5045 4.15337C17.5028 4.00886 17.4634 3.8673 17.3901 3.74271C17.3169 3.61812 17.2124 3.51481 17.087 3.443C16.9615 3.3712 16.8195 3.33339 16.675 3.33332H4.34168L3.55834 1.66666H0.833344V3.33332H2.50001L5.50001 9.65832L4.37501 11.6917C3.76668 12.8083 4.56668 14.1667 5.83334 14.1667H15.8333V12.5H5.83334L6.75001 10.8333H12.9583ZM5.13334 4.99999H15.2583L12.9583 9.16666H7.10834L5.13334 4.99999ZM5.83334 15C4.91668 15 4.17501 15.75 4.17501 16.6667C4.17501 17.5833 4.91668 18.3333 5.83334 18.3333C6.75001 18.3333 7.50001 17.5833 7.50001 16.6667C7.50001 15.75 6.75001 15 5.83334 15ZM14.1667 15C13.25 15 12.5083 15.75 12.5083 16.6667C12.5083 17.5833 13.25 18.3333 14.1667 18.3333C15.0833 18.3333 15.8333 17.5833 15.8333 16.6667C15.8333 15.75 15.0833 15 14.1667 15Z" fill="black"/>
</svg>
